<?xml version="1.0" standalone="no"?>
<!DOCTYPE svg PUBLIC "-//W3C//DTD SVG 20010904//EN"
 "http://www.w3.org/TR/2001/REC-SVG-20010904/DTD/svg10.dtd">
<svg version="1.0" xmlns="http://www.w3.org/2000/svg"
 width="20px" height="20px" viewBox="0 0 1024.000000 1024.000000"
 preserveAspectRatio="xMidYMid meet">

<g transform="translate(0.000000,1024.000000) scale(0.100000,-0.100000)"
fill="#000000" stroke="none">
<path d="M3895 8829 c-448 -50 -828 -351 -955 -754 -33 -104 -39 -268 -39
-1082 l-1 -721 49 -36 c77 -56 163 -155 204 -234 66 -125 67 -136 67 -814 l0
-607 65 40 c35 22 97 53 137 67 l73 27 1600 3 c1065 2 1622 -1 1667 -8 83 -13
157 -39 232 -85 32 -19 60 -35 62 -35 2 0 4 273 4 608 0 657 1 673 56 788 40
84 108 167 185 226 l70 53 -3 865 -3 865 -24 70 c-35 104 -105 242 -161 316
-147 196 -385 351 -648 422 l-117 32 -1220 1 c-671 1 -1256 -2 -1300 -7z m690
-1114 c101 -26 176 -69 243 -139 129 -135 172 -315 122 -512 l-20 -79 72 -72
73 -73 -179 -181 -179 -180 -71 70 -71 70 -58 -20 c-304 -103 -627 77 -692
386 -20 95 -21 350 -1 338 7 -4 99 -91 205 -193 105 -102 195 -186 199 -188 4
-1 89 80 190 181 l182 183 -214 204 c-118 113 -215 208 -215 213 -2 14 351 8
414 -8z m1376 -199 l-213 -214 181 -183 182 -183 72 70 c249 241 337 324 346
324 15 0 5 -277 -13 -354 -48 -200 -213 -360 -411 -397 -78 -15 -195 -6 -269
19 l-60 20 -100 -96 c-56 -53 -290 -284 -522 -512 l-421 -415 -11 -72 c-36
-247 -243 -394 -477 -339 -200 47 -321 231 -285 435 32 184 170 309 353 319
l78 5 513 512 513 512 -18 69 c-23 87 -24 239 -4 319 36 138 134 259 259 320
95 47 130 53 341 54 l180 1 -214 -214z m76 -1579 c135 -8 260 -92 320 -215 25
-51 28 -67 27 -157 0 -127 -25 -196 -97 -272 -225 -239 -635 -101 -664 224
l-6 68 -160 163 -160 164 174 174 174 174 160 -159 160 -159 72 -5z"/>
<path d="M4252 5719 c-124 -63 -131 -236 -13 -315 59 -38 115 -41 181 -7 68
35 100 84 100 158 0 139 -144 227 -268 164z"/>
<path d="M5925 5721 c-143 -64 -140 -255 5 -328 58 -30 95 -29 161 5 66 33 99
84 99 152 0 50 -26 115 -56 142 -54 48 -141 60 -209 29z"/>
<path d="M2176 6184 c-363 -78 -615 -366 -633 -724 -8 -144 13 -244 77 -375
80 -165 199 -289 354 -369 l76 -39 2 -811 c3 -761 4 -814 22 -861 46 -126 147
-246 253 -302 109 -58 142 -63 415 -63 l248 0 0 1369 c-1 1066 -3 1371 -13
1379 -20 16 -184 60 -312 83 -259 46 -740 38 -910 -16 -11 -3 5 7 35 24 81 45
284 109 418 132 220 38 494 26 699 -31 40 -11 75 -20 78 -20 3 0 5 36 5 81 0
159 -51 280 -161 383 -80 76 -200 139 -304 161 -88 18 -259 18 -349 -1z"/>
<path d="M7784 6191 c-126 -20 -260 -84 -342 -164 -109 -105 -151 -208 -152
-369 l0 -108 48 19 c89 35 285 62 453 61 292 0 465 -36 689 -144 41 -20 66
-34 55 -30 -11 3 -81 15 -155 26 -185 27 -585 22 -755 -11 -133 -25 -249 -54
-298 -75 l-37 -15 0 -1370 0 -1371 236 0 c261 0 309 7 418 62 83 42 176 134
220 217 67 128 66 110 66 982 l0 786 42 19 c103 46 211 130 296 229 173 201
219 512 115 772 -88 220 -299 404 -538 469 -68 18 -283 27 -361 15z"/>
<path d="M3582 4505 c-41 -7 -75 -15 -77 -17 -2 -2 51 -3 118 -4 70 0 159 -8
210 -18 130 -25 148 -37 47 -30 -220 15 -469 -69 -583 -196 -88 -98 -87 -90
-87 -473 l0 -337 1925 0 1925 0 0 343 c0 369 -4 406 -54 506 -52 102 -194 203
-324 230 -84 17 -3003 13 -3100 -4z"/>
<path d="M3214 3225 c-2 -5 -3 -141 -2 -300 l3 -290 1680 -3 c924 -2 1789 0
1923 4 l242 6 -2 297 -3 296 -1919 1 c-1356 0 -1919 -3 -1922 -11z"/>
<path d="M2507 2513 c-4 -3 -7 -145 -7 -314 l0 -308 26 -20 c26 -20 37 -21
441 -21 l414 0 24 25 25 24 0 311 0 310 -458 0 c-252 0 -462 -3 -465 -7z"/>
<path d="M6860 2206 l0 -315 26 -20 c26 -20 37 -21 435 -21 396 0 410 1 429
20 19 19 20 33 20 335 l0 315 -455 0 -455 0 0 -314z"/>
<path d="M4621 1588 c0 -10 -6 -18 -12 -18 -5 0 -7 5 -4 10 3 6 2 10 -4 10 -5
0 -13 -5 -17 -11 -4 -7 -34 -9 -85 -6 -43 2 -80 0 -81 -5 -2 -5 -20 -6 -43 -1
-42 9 -163 -8 -135 -19 8 -3 3 -5 -12 -4 -16 0 -28 4 -28 7 0 4 -12 7 -26 7
-17 0 -22 -3 -13 -9 7 -4 18 -5 24 -2 5 4 6 2 2 -3 -10 -11 -87 -13 -87 -2 0
5 -5 8 -11 8 -5 0 -8 -4 -5 -9 3 -5 -4 -9 -17 -9 -32 0 -79 -8 -102 -17 -16
-5 -17 -5 -5 4 13 9 13 11 -3 11 -10 0 -20 -6 -23 -14 -3 -8 -14 -14 -24 -13
-10 1 -17 4 -14 8 2 4 0 10 -5 13 -5 3 -11 -3 -14 -14 -3 -13 -11 -18 -26 -15
-12 2 -21 -1 -21 -7 0 -5 -6 -8 -12 -5 -7 2 -22 1 -33 -3 -11 -4 -26 -3 -33 3
-9 7 -11 6 -7 -5 6 -15 -22 -34 -33 -23 -3 3 0 5 6 5 7 0 12 4 12 9 0 20 -42
-3 -56 -30 -8 -16 -17 -29 -20 -29 -3 0 -3 4 0 8 2 4 -4 14 -16 21 -11 7 -17
8 -13 2 3 -6 -2 -11 -12 -11 -17 -1 -17 -1 0 -11 9 -5 17 -18 16 -27 0 -10 -3
-12 -6 -4 -10 25 -20 11 -17 -24 2 -32 1 -34 -11 -17 -7 10 -17 15 -20 11 -10
-10 23 -41 35 -33 5 3 23 -1 40 -10 39 -20 90 -27 90 -12 0 6 9 1 21 -11 11
-12 24 -20 30 -17 5 4 9 1 9 -4 0 -6 5 -11 11 -11 5 0 7 5 4 10 -3 6 -1 10 4
10 6 0 11 -5 11 -11 0 -7 10 -9 25 -7 14 3 22 1 18 -5 -3 -5 0 -7 8 -5 8 3 20
-2 26 -11 10 -13 14 -13 21 -3 7 11 12 10 26 -3 9 -9 16 -12 16 -6 0 6 11 7
28 3 15 -4 53 -7 84 -6 31 0 55 -3 52 -7 -7 -12 39 -16 59 -4 12 7 20 7 25 0
9 -14 55 -17 47 -4 -4 5 -2 9 4 9 5 0 13 -5 16 -10 4 -6 22 -9 41 -7 19 3 34
1 34 -2 0 -4 9 -7 20 -7 11 0 20 4 20 8 0 5 8 5 18 0 9 -4 32 -8 50 -8 17 1
32 -1 32 -4 0 -3 18 -4 40 -4 22 1 42 -1 44 -5 2 -3 29 -6 60 -5 35 1 53 -3
49 -9 -4 -6 -1 -7 7 -2 18 11 150 14 156 3 3 -4 12 -8 20 -8 9 0 12 5 8 12 -5
7 -3 8 7 2 19 -12 42 -11 52 1 4 6 10 5 15 -3 7 -10 19 -11 49 -4 23 5 47 6
54 1 7 -4 17 -5 22 -2 13 8 102 7 116 -1 6 -4 11 -4 11 1 0 4 11 9 25 9 14 1
25 -3 25 -10 0 -6 5 -4 10 4 8 12 10 12 10 1 0 -11 3 -11 15 -1 11 9 15 9 15
1 0 -7 5 -9 11 -5 6 3 57 8 113 11 55 2 117 5 138 6 20 1 34 -1 31 -5 -5 -10
11 -11 20 -1 4 3 38 6 76 6 39 0 68 4 66 8 -3 4 6 6 20 5 14 0 25 -4 25 -7 0
-4 11 -6 25 -5 14 0 25 5 25 9 0 5 4 6 9 3 5 -4 12 0 14 6 4 10 6 10 6 1 1
-15 43 -17 56 -4 13 13 86 21 79 10 -3 -5 0 -9 5 -9 6 0 11 4 11 10 0 5 7 7
15 4 9 -4 15 0 15 7 1 9 4 8 11 -4 6 -9 15 -15 20 -12 5 4 7 9 5 13 -2 4 7 8
20 8 13 1 24 -2 24 -7 0 -5 5 -9 10 -9 6 0 10 8 10 18 0 10 3 13 8 7 8 -13 54
-14 63 -1 4 4 23 8 43 8 20 0 36 4 36 9 0 4 7 6 15 3 9 -4 15 0 15 7 0 11 3
11 10 -1 6 -9 13 -11 18 -5 11 15 32 17 32 3 0 -10 3 -9 9 1 11 17 61 23 61 8
0 -7 4 -6 9 3 6 8 7 19 5 25 -3 5 2 1 12 -10 16 -20 16 -20 11 5 -6 24 -6 24
9 5 13 -17 16 -18 24 -5 9 13 11 13 20 0 13 -20 13 -4 0 21 -7 13 -7 19 0 19
5 0 10 -5 10 -11 0 -8 4 -8 13 -2 6 6 22 9 35 8 16 -1 22 4 22 19 0 16 3 18 9
7 5 -8 11 -9 15 -3 7 12 -22 25 -36 15 -7 -4 -8 -1 -4 6 5 7 14 10 22 7 8 -3
14 -1 14 5 0 6 4 8 8 5 5 -3 9 1 9 9 0 11 -4 12 -14 4 -10 -9 -13 -7 -13 10 0
11 -4 21 -10 21 -5 0 -6 -8 -3 -17 7 -17 6 -17 -11 0 -23 22 -30 22 -23 -3 3
-11 1 -20 -4 -20 -11 0 -11 28 1 55 7 17 9 17 9 3 1 -10 6 -18 11 -18 12 0 13
10 1 29 -8 12 -12 12 -25 2 -9 -8 -16 -20 -16 -28 0 -8 -5 -11 -10 -8 -6 4 -8
11 -5 16 4 5 -2 6 -12 2 -16 -6 -16 -4 2 17 l20 23 -22 -12 c-22 -11 -53 -6
-53 10 0 6 -10 5 -22 -2 -18 -10 -20 -9 -15 5 7 19 3 20 -24 6 -13 -8 -19 -7
-19 0 0 6 -5 8 -11 5 -5 -4 -19 1 -30 11 -13 12 -19 13 -19 4 0 -10 -3 -10
-15 0 -8 6 -23 9 -33 6 -12 -4 -24 0 -32 9 -11 13 -15 13 -21 3 -7 -10 -9 -10
-9 2 -1 11 -4 10 -17 -5 -13 -17 -15 -17 -10 -2 4 11 2 17 -6 16 -6 -1 -20 1
-31 6 -11 5 -21 3 -26 -5 -5 -9 -9 -9 -14 -1 -4 6 -12 9 -17 6 -5 -4 -9 -1 -9
5 0 8 -15 10 -47 6 -28 -3 -52 -1 -60 6 -7 6 -13 6 -13 1 0 -5 -22 -9 -50 -8
-27 0 -50 3 -50 7 0 4 -6 5 -13 2 -8 -3 -25 0 -39 5 -18 7 -29 6 -38 -2 -7 -7
-10 -7 -7 -2 3 6 -9 15 -28 21 -25 8 -32 7 -28 -1 3 -9 -5 -11 -24 -7 -15 2
-65 5 -110 6 -46 0 -83 3 -83 6 0 9 -145 5 -151 -4 -4 -4 -15 -4 -25 2 -23 11
-433 10 -451 -1 -7 -5 -13 -4 -13 0 0 5 -12 8 -27 7 -16 -1 -28 -2 -28 -4 0
-6 -57 -5 -61 2 -3 4 -15 4 -27 -1 -12 -4 -39 -7 -59 -5 -21 2 -38 -1 -38 -6
0 -17 -28 -11 -33 8 -4 16 -5 16 -6 0z m1914 -146 c-3 -3 -11 0 -18 7 -9 10
-8 11 6 5 10 -3 15 -9 12 -12z m-2882 -106 c4 -10 1 -13 -8 -9 -8 3 -12 9 -9
14 7 12 11 11 17 -5z m2984 8 c-3 -3 -12 -4 -19 -1 -8 3 -5 6 6 6 11 1 17 -2
13 -5z m-697 -140 c0 -2 -7 -4 -15 -4 -8 0 -15 4 -15 10 0 5 7 7 15 4 8 -4 15
-8 15 -10z"/>
<path d="M3760 1489 c0 -5 5 -7 10 -4 6 3 10 8 10 11 0 2 -4 4 -10 4 -5 0 -10
-5 -10 -11z"/>
<path d="M3570 1389 c0 -6 -7 -8 -17 -4 -15 5 -16 4 -5 -6 10 -11 15 -10 29 4
11 11 13 17 5 17 -7 0 -12 -5 -12 -11z"/>
</g>
</svg>
