<svg xmlns="http://www.w3.org/2000/svg" viewBox="0.4 0.65 27.2 22.83">
	<path d="m 26.79 5.75 h -2.08 c -0.18 0 -0.33 0.07 -0.46 0.18 v -3.43 c -0.25 -0.5 -1.25 -1.5 -1.75 -1.75 H 5.5 c -0.5 0.25 -1.5 1.25 -1.75 1.75 v 3.43 c -0.12 -0.11 -0.28 -0.18 -0.46 -0.18 H 1.21 l -0.71 0.71 v 15.21 c 0 0.39 0.32 0.71 0.71 0.71 h 2.79 l 1.77 -0.24 c 0.05 0.69 0.61 1.24 1.31 1.24 h 13.84 c 0.7 0 1.27 -0.55 1.31 -1.24 l 1.77 0.24 h 2.79 c 0.39 0 0.71 -0.32 0.71 -0.71 V 6.46 Z" stroke="#000000" stroke-width="0.1" fill="#FFFFE0"/>
</svg>